<svg width="175" height="79" viewBox="0 0 175 79" fill="none" xmlns="http://www.w3.org/2000/svg">
<rect x="2.91416" y="39.1403" width="165.077" height="37.6883" rx="18.8441" transform="rotate(-12.8759 2.91416 39.1403)" fill="#00FFFF"/>
<rect x="2.91416" y="39.1403" width="165.077" height="37.6883" rx="18.8441" transform="rotate(-12.8759 2.91416 39.1403)" stroke="black" stroke-width="3.72355"/>
<path d="M34.8454 56.6499L35.9944 52.5422C36.5259 52.862 37.1226 53.1331 37.7845 53.3552C38.4626 53.5737 39.1266 53.6935 39.7765 53.7147C39.9613 53.7064 40.1462 53.6981 40.331 53.6898C40.5122 53.6654 40.6834 53.6347 40.8447 53.5979C40.9254 53.5794 41.006 53.561 41.0867 53.5425C41.1798 53.5043 41.2649 53.4679 41.3418 53.4333C41.759 53.2531 42.1218 52.9834 42.4301 52.6243C42.7348 52.2491 42.83 51.8114 42.7157 51.3113C42.605 50.8273 42.3123 50.5123 41.8375 50.3662C41.3628 50.2201 40.7949 50.1122 40.1339 50.0426C39.8573 50.021 39.5727 50.0011 39.28 49.9832C38.9836 49.9491 38.6872 49.915 38.3908 49.8809C38.3747 49.8845 38.3586 49.8882 38.3424 49.8919C38.3387 49.8758 38.3288 49.8696 38.3127 49.8733C37.2959 49.7322 36.3246 49.4195 35.3991 48.935C34.4698 48.4345 33.8392 47.4582 33.5073 46.0062C33.1791 44.5704 33.3376 43.1846 33.9829 41.8488C34.6444 40.5092 35.6981 39.6233 37.144 39.1909L36.4692 36.2386L38.7197 35.7241L39.3891 38.6523C39.5094 38.6587 39.6278 38.6571 39.7444 38.6474C39.8735 38.6179 39.9982 38.6064 40.1185 38.6128C40.7859 38.5621 41.4582 38.5697 42.1354 38.6356C42.8286 38.6978 43.4901 38.8437 44.1197 39.0733L43.1255 42.9673C42.6125 42.7281 42.0658 42.5645 41.4855 42.4764C40.9015 42.3723 40.3271 42.3847 39.7625 42.5138C39.2301 42.6355 38.7781 42.8492 38.4066 43.1548C38.0351 43.4604 37.9047 43.8552 38.0153 44.3392C38.1038 44.7264 38.329 45.0059 38.6908 45.1778C39.0527 45.3498 39.4295 45.4758 39.8213 45.556C39.9974 45.5837 40.1735 45.6113 40.3495 45.639C40.5219 45.6505 40.6782 45.6657 40.8183 45.6846C42.309 45.8192 43.6598 46.1215 44.8707 46.5917C46.0941 47.042 46.8975 48.1061 47.281 49.7839C47.6683 51.4779 47.5171 52.896 46.8275 54.0382C46.1343 55.1643 45.0414 56.1016 43.5489 56.8502L44.2348 59.851L41.9843 60.3654L41.326 57.4857C40.7936 57.6074 40.2582 57.6788 39.7199 57.7001C39.1815 57.7213 38.632 57.6941 38.0715 57.6185C38.0194 57.6134 37.9673 57.6084 37.9153 57.6033C37.8632 57.5982 37.8192 57.5913 37.7832 57.5825C37.2711 57.4959 36.7634 57.3913 36.26 57.2687C35.7691 57.1262 35.2994 56.928 34.8509 56.6741L34.8454 56.6499ZM59.1279 53.3145L51.8197 54.9851L47.6488 36.7387L54.4246 35.1898C56.0577 34.8335 57.4475 34.8978 58.5938 35.3827C59.7564 35.8639 60.5368 36.9757 60.935 38.718C61.1231 39.5408 61.1376 40.3099 60.9786 41.0253C60.8357 41.737 60.4357 42.3632 59.7784 42.9039L59.7839 42.9281C61.1312 42.8068 62.1912 43.0993 62.9637 43.8054C63.7487 44.4918 64.2869 45.4722 64.5782 46.7467C65.0134 48.6504 64.6301 50.13 63.4285 51.1856C62.2393 52.2213 60.8057 52.931 59.1279 53.3145ZM54.8369 46.3507L55.733 50.271L56.338 50.1327C56.3578 50.1451 56.3758 50.1495 56.3919 50.1458C56.4242 50.1384 56.4565 50.1311 56.4887 50.1237C56.6823 50.0794 56.884 50.0333 57.0937 49.9854C57.3034 49.9375 57.5113 49.8814 57.7174 49.8174C58.3032 49.6325 58.8167 49.3539 59.2578 48.9814C59.6989 48.609 59.8384 48.0678 59.6761 47.358C59.488 46.5352 59.0921 46.0655 58.4882 45.9489C57.8844 45.8323 57.258 45.8397 56.609 45.971C56.4638 46.0042 56.3105 46.0393 56.1492 46.0761C56.004 46.1093 55.8588 46.1425 55.7136 46.1757C55.6491 46.1905 55.5845 46.2052 55.52 46.22C55.4555 46.2347 55.3909 46.2495 55.3264 46.2642L54.8369 46.3507ZM53.2216 39.2844L54.0292 42.8175L54.5616 42.6958C54.5815 42.7083 54.5994 42.7127 54.6156 42.709C54.6478 42.7016 54.6801 42.6942 54.7124 42.6869C55.3056 42.5343 55.8283 42.296 56.2805 41.9719C56.7488 41.6442 56.8981 41.1092 56.7285 40.3671C56.5589 39.625 56.2081 39.2044 55.6761 39.1053C55.1442 39.0062 54.5941 39.0131 54.0257 39.1261C53.9451 39.1445 53.8644 39.163 53.7837 39.1814C53.7192 39.1961 53.6466 39.2127 53.5659 39.2312L53.2216 39.2844ZM78.6523 45.5157L72.1185 47.0093L71.5848 50.467L66.5513 51.6176L69.3982 31.7671L74.5769 30.5833L85.6204 47.2586L80.5628 48.4148L78.6523 45.5157ZM76.54 42.179L73.2764 36.8136L73.228 36.8247L72.5955 43.0806L76.54 42.179ZM94.8311 37.2848L102.276 43.4514L96.371 44.8012L90.29 38.8067L90.2416 38.8178L91.8457 45.8356L87.1027 46.9198L82.9317 28.6734L90.0222 27.0526C91.8328 26.6557 93.4463 26.7707 94.8628 27.3976C96.2756 28.0083 97.2051 29.2897 97.6513 31.2418C97.939 32.5002 97.8484 33.7007 97.3797 34.8434C96.9233 35.9663 96.0757 36.7881 94.8367 37.309L94.8311 37.2848ZM88.5046 31.2191L89.5446 35.7686L90.0043 35.6635C90.0887 35.6612 90.1712 35.6509 90.2519 35.6324C90.3325 35.614 90.4051 35.5974 90.4697 35.5826C91.1721 35.3881 91.7806 35.0793 92.295 34.6561C92.8218 34.2131 92.9839 33.548 92.781 32.6607C92.5782 31.7734 92.1451 31.2527 91.4818 31.0988C90.831 30.925 90.1469 30.9031 89.4297 31.0331C89.3652 31.0479 89.2926 31.0645 89.2119 31.0829C89.1312 31.1014 89.0506 31.1198 88.9699 31.1382L88.5046 31.2191ZM108.413 22.2121C111.046 21.6271 113.589 21.9797 116.039 23.2698C118.487 24.5439 120.025 26.5602 120.656 29.319C121.331 32.2713 120.93 34.9008 119.455 37.2073C117.995 39.5102 115.797 40.9973 112.861 41.6685C109.941 42.336 107.315 41.9516 104.983 40.5153C102.652 39.079 101.149 36.8847 100.474 33.9324C99.8432 31.1737 100.353 28.6889 102.004 26.4782C103.651 24.2514 105.789 22.8374 108.419 22.2363L108.413 22.2121ZM109.464 26.81C108.048 27.1507 106.944 27.9292 106.153 29.1457C105.374 30.3423 105.128 31.5698 105.416 32.8281C105.774 34.393 106.571 35.5774 107.807 36.3813C109.059 37.1815 110.395 37.4193 111.815 37.0948C113.235 36.7702 114.327 35.9774 115.091 34.7162C115.871 33.4514 116.083 32.0365 115.725 30.4716C115.437 29.2133 114.675 28.2163 113.437 27.4806C112.212 26.7251 110.889 26.5097 109.47 26.8342L109.464 26.81ZM125.009 38.2549L120.838 20.0085L125.581 18.9243L136.819 28.0944L136.867 28.0833L134.317 16.9274L139.06 15.8432L143.231 34.0895L138.488 35.1738L127.245 25.9795L127.196 25.9906L129.752 37.1707L125.009 38.2549Z" fill="black"/>
</svg>
