<svg width="92" height="90" viewBox="0 0 92 90" fill="none" xmlns="http://www.w3.org/2000/svg">
<g clip-path="url(#clip0_165_348)">
<path d="M87.6019 58.7079L89.8379 46.0371L81.1944 44.5103C81.1672 40.5465 80.4764 36.6151 79.1507 32.8794L86.7424 28.4975L80.3108 17.3535L72.7311 21.7414C70.1665 18.7293 67.1197 16.1639 63.7149 14.1497L66.7203 5.90285L54.5725 1.50293L51.567 9.74977C47.6601 9.08461 43.6688 9.08461 39.7618 9.74977L36.7564 1.50293L24.6746 5.90285L27.68 14.1497C24.2624 16.1581 21.2047 18.724 18.6338 21.7414L11.0301 17.3535L4.59249 28.4975L12.1902 32.8794C10.8616 36.6144 10.1707 40.5462 10.1465 44.5103L1.50293 46.0371L3.73895 58.7079L12.3705 57.1872C13.7523 60.9009 15.7498 64.3554 18.2791 67.4056L12.6229 74.1317L22.4807 82.4025L28.1249 75.6825C31.5681 77.6428 35.3173 79.0084 39.2148 79.7217V88.4975H52.102V79.7217C56.0016 79.0094 59.753 77.6438 63.198 75.6825L68.8361 82.4025L78.6999 74.1317L73.0617 67.4116C75.5868 64.3584 77.5838 60.9047 78.9704 57.1932L87.6019 58.7079Z" stroke="#8000FF" stroke-width="3.00541" stroke-linecap="round" stroke-linejoin="round"/>
<path d="M45.6702 64.5446C56.4658 64.5446 65.2174 55.793 65.2174 44.9974C65.2174 34.2018 56.4658 25.4502 45.6702 25.4502C34.8746 25.4502 26.123 34.2018 26.123 44.9974C26.123 55.793 34.8746 64.5446 45.6702 64.5446Z" fill="#00CFFF"/>
<path d="M66.8769 32.5305C69.9057 37.6815 70.9558 43.7589 69.831 49.6276C68.7062 55.4963 65.4834 60.7548 60.7647 64.4209C56.046 68.087 50.154 69.9099 44.1894 69.5491C38.2248 69.1883 32.5955 66.6685 28.3531 62.4604C24.1106 58.2523 21.5452 52.6437 21.1359 46.6823C20.7267 40.7208 22.5016 34.8142 26.1292 30.0658C29.7568 25.3174 34.9889 22.052 40.8483 20.8795C46.7076 19.7071 52.7934 20.7077 57.9689 23.6946" stroke="#8000FF" stroke-width="3.00541" stroke-linecap="round" stroke-linejoin="round"/>
<g clip-path="url(#clip1_165_348)">
<path d="M40.4756 32.1776C49.0361 28.3522 59.114 34.2925 59.921 43.5641C52.0202 42.1671 45.6143 38.3597 40.4756 32.1776Z" fill="#8000FF"/>
<path d="M40.4878 57.8135C45.6116 51.6344 52.0175 47.8404 59.9943 46.415C59.3987 50.8509 57.3572 54.2329 53.7686 56.6628C49.4712 59.5747 43.9841 59.5329 40.4878 57.8135Z" fill="#8000FF"/>
<path d="M48.488 46.0615C46.1964 47.0093 43.7484 47.9332 41.3808 49.0287C38.9937 50.1378 36.8281 51.6732 34.9898 53.56C33.4785 52.272 31.8435 48.0376 32.0951 46.0615H48.488Z" fill="#8000FF"/>
<path d="M34.9066 36.373C38.8228 40.2536 43.6026 42.2984 48.6431 43.9238H32C32.1623 41.0895 33.1719 38.6507 34.9066 36.373Z" fill="#8000FF"/>
<path d="M48.0817 48.542C44.4504 50.7704 41.24 53.6236 38.598 56.9704L36.2349 55.1793C39.5941 51.7465 43.7069 49.9092 48.0817 48.542Z" fill="#8000FF"/>
<path d="M38.586 33.0225C41.2369 36.376 44.4593 39.2325 48.1039 41.4598C43.7321 40.1046 39.6402 38.2687 36.2407 34.8478L38.586 33.0225Z" fill="#8000FF"/>
</g>
</g>
<defs>
<clipPath id="clip0_165_348">
<rect width="91.3404" height="90" fill="white"/>
</clipPath>
<clipPath id="clip1_165_348">
<rect width="28" height="28" fill="white" transform="translate(32 31)"/>
</clipPath>
</defs>
</svg>
