<svg width="119" height="80" viewBox="0 0 119 80" fill="none" xmlns="http://www.w3.org/2000/svg">
<path d="M44.441 15.7813C43.0012 15.2665 42.1783 13.5718 42.9013 12.0479C44.2102 9.28883 45.3293 6.58488 43.4986 3.75056C41.2722 0.303087 36.3336 -0.661899 32.9667 1.6785C28.8141 4.56497 29.7017 9.17429 32.3315 12.7571C33.3566 14.1536 32.8126 16.0215 31.4354 16.7653L14.1764 18.0719L14.194 18.3056L14.6583 24.4421L15.4671 35.1282C15.0394 36.7324 13.1865 37.6722 11.5796 36.8326C7.64059 34.7743 2.95013 34.5932 0.72427 39.1343C-1.08061 42.8164 0.619394 47.5523 4.36363 49.2324C7.44197 50.6136 9.94584 49.0991 12.4752 47.3882C13.9315 46.4033 15.821 47.0528 16.481 48.5231L17.7568 65.3802L33.905 64.158C33.9363 64.1557 33.9659 64.1589 33.997 64.1574L35.0165 64.0804C36.3936 63.3363 36.9373 61.4684 35.9126 60.0722C33.2828 56.4894 32.3954 51.8801 36.5477 48.9936C39.9149 46.6529 44.8532 47.6182 47.0797 51.0657C48.9103 53.9 47.7913 56.6039 46.4823 59.363C45.7593 60.8869 46.5822 62.5816 48.0221 63.0964L49.036 63.0196C49.0673 63.0161 49.0969 63.0088 49.1286 63.0061L65.0652 61.8L63.8105 45.221C63.2805 43.3748 61.4106 42.7801 59.7162 43.8731C57.1499 45.5286 54.8763 47.0015 51.798 45.6203C48.0537 43.9402 46.1601 39.3013 47.965 35.6191C50.1911 31.0781 54.8813 31.2591 58.8206 33.3174C60.5077 34.1989 62.4673 33.1203 62.7623 31.369L62.0056 21.3711L61.5026 14.7255L61.485 14.4917L44.441 15.7813Z" fill="#00CFFF"/>
<path d="M101.908 15.9136C100.511 15.2917 99.818 13.5395 100.654 12.0745C102.168 9.42206 103.487 6.81039 101.876 3.846C99.9158 0.240332 95.0645 -1.09465 91.5303 0.985021C87.1718 3.54982 87.7091 8.21305 90.0609 11.9842C90.9775 13.454 90.2944 15.2756 88.8651 15.9133H71.5565V16.1477V22.3017V33.0185C71.009 34.5858 69.0904 35.3833 67.5516 34.4247C63.7789 32.0752 59.1157 31.5406 56.5532 35.9006C54.4756 39.436 55.8132 44.2867 59.4201 46.2445C62.3853 47.8542 64.9964 46.533 67.6479 45.0179C69.1742 44.1458 71.0096 44.9359 71.5565 46.4519V63.357H87.7507C89.8875 63.357 91.1917 65.7071 90.0606 67.5205C87.7088 71.2916 87.1715 75.9546 91.53 78.5197C95.0642 80.5993 99.9155 79.2644 101.876 75.6587C103.487 72.6943 102.167 70.0826 100.654 67.4302C99.6179 65.6151 100.928 63.357 103.018 63.357H119V46.7305C118.56 45.0721 116.618 44.1639 115.019 45.0776C112.367 46.5928 109.757 47.914 106.791 46.3042C103.184 44.3461 101.846 39.4957 103.924 35.9604C106.487 31.6003 111.15 32.1347 114.923 34.4845C116.538 35.4908 118.574 34.5633 119 32.8392V22.8129V16.1483V15.9139L101.908 15.9136Z" fill="#8000FF"/>
</svg>
