<svg width="90" height="90" viewBox="0 0 90 90" fill="none" xmlns="http://www.w3.org/2000/svg">
<path d="M36.856 69.9915V87.8451C36.856 89.0352 37.8208 90 39.0109 90H56.8644C58.0546 90 59.0193 89.0352 59.0193 87.8451V69.9915C59.0193 68.8014 58.0546 67.8366 56.8644 67.8366H39.0109C37.8208 67.8366 36.856 68.8014 36.856 69.9915Z" fill="#00CFFF"/>
<path d="M67.418 8.16634V26.0199C67.418 27.21 68.3828 28.1748 69.5729 28.1748H87.4264C88.6166 28.1748 89.5813 27.21 89.5813 26.0199V8.16634C89.5813 6.97621 88.6166 6.01142 87.4264 6.01142H69.5729C68.3828 6.01142 67.418 6.97621 67.418 8.16634Z" fill="#00CFFF"/>
<path d="M7.38721 18.9466L7.38721 36.8002C7.38721 37.9903 8.352 38.9551 9.54213 38.9551H27.3957C28.5858 38.9551 29.5506 37.9903 29.5506 36.8002V18.9466C29.5506 17.7565 28.5858 16.7917 27.3957 16.7917H9.54213C8.352 16.7917 7.38721 17.7565 7.38721 18.9466Z" fill="#00CFFF"/>
<path d="M2 11.404L2 33.5674H24.1634V11.404H2Z" stroke="#8000FF" stroke-width="2.69365" stroke-linecap="round" stroke-linejoin="round"/>
<path d="M22.4341 11.3991C26.8956 8.21116 32.0504 6.12825 37.4743 5.32184C42.8981 4.51543 48.436 5.00856 53.632 6.76066" stroke="#8000FF" stroke-width="2.69365" stroke-linecap="round" stroke-linejoin="round"/>
<path d="M31.4687 72.2382C25.5159 70.2173 20.2261 66.6128 16.1676 61.812C12.109 57.0111 9.43491 51.1954 8.43262 44.9893" stroke="#8000FF" stroke-width="2.69365" stroke-linecap="round" stroke-linejoin="round"/>
<path d="M76.614 33.5674C77.6363 39.4409 77.1218 45.4789 75.1205 51.0947C73.1193 56.7106 69.6992 61.7132 65.1929 65.6165" stroke="#8000FF" stroke-width="2.69365" stroke-linecap="round" stroke-linejoin="round"/>
<path d="M49.6779 0.462411L55.2269 5.1763C55.4776 5.38989 55.6678 5.66558 55.7784 5.97579C55.8891 6.286 55.9163 6.61983 55.8574 6.94388C55.7985 7.26792 55.6555 7.57081 55.4427 7.82221C55.23 8.07361 54.9549 8.2647 54.645 8.37636L47.7654 10.8276C47.455 10.9376 47.1211 10.9641 46.7972 10.9045C46.4733 10.8449 46.1707 10.7013 45.9198 10.488C45.6689 10.2747 45.4784 9.99918 45.3673 9.68911C45.2563 9.37904 45.2287 9.04525 45.2873 8.72115L46.591 1.55603C46.6484 1.22784 46.7921 0.920806 47.0072 0.666359C47.2223 0.411912 47.5011 0.219194 47.8152 0.107932C48.1292 -0.0033304 48.4672 -0.0291397 48.7945 0.033146C49.1218 0.0954316 49.4267 0.243575 49.6779 0.462411Z" fill="#8000FF"/>
<path d="M71.8623 66.5595L65.0096 69.0108C64.6996 69.1221 64.3658 69.1499 64.0417 69.0912C63.7175 69.0325 63.4146 68.8894 63.1634 68.6764C62.9121 68.4634 62.7214 68.1879 62.6105 67.8778C62.4996 67.5676 62.4723 67.2337 62.5315 66.9097L63.8352 59.7446C63.8962 59.4217 64.0409 59.1206 64.255 58.8713C64.469 58.622 64.7448 58.4333 65.0547 58.3242C65.3646 58.2151 65.6978 58.1893 66.0208 58.2495C66.3438 58.3097 66.6454 58.4537 66.8952 58.6671L72.4495 63.381C72.6963 63.5949 72.8829 63.8696 72.9908 64.1778C73.0988 64.486 73.1244 64.8171 73.0651 65.1383C73.0057 65.4594 72.8636 65.7595 72.6526 66.0088C72.4416 66.2581 72.1692 66.4479 71.8623 66.5595Z" fill="#8000FF"/>
<path d="M13.771 51.2382L6.6759 52.8867C6.35537 52.9615 6.02083 52.9505 5.70589 52.8549C5.39095 52.7593 5.10672 52.5826 4.88177 52.3423C4.65682 52.1021 4.49907 51.8069 4.42439 51.4863C4.34971 51.1658 4.36072 50.8312 4.45633 50.5163L6.57893 43.5451C6.67525 43.2302 6.85263 42.946 7.09329 42.7212C7.33396 42.4963 7.62948 42.3386 7.95025 42.2639C8.27103 42.1892 8.60581 42.2 8.92108 42.2953C9.23635 42.3906 9.52104 42.5671 9.74666 42.8071L14.7138 48.1244C14.9387 48.3651 15.0965 48.6608 15.1712 48.9817C15.246 49.3026 15.235 49.6375 15.1396 49.9529C15.0441 50.2683 14.8674 50.553 14.6272 50.7786C14.387 51.0042 14.0917 51.1627 13.771 51.2382Z" fill="#8000FF"/>
<path d="M62.0308 11.3981V33.5615H84.1941V11.3981H62.0308Z" stroke="#8000FF" stroke-width="2.69365" stroke-linecap="round" stroke-linejoin="round"/>
<path d="M53.6321 62.4434H31.4688V84.6067H53.6321V62.4434Z" stroke="#8000FF" stroke-width="2.69365" stroke-linecap="round" stroke-linejoin="round"/>
</svg>
