<svg width="80" height="91" viewBox="0 0 80 91" fill="none" xmlns="http://www.w3.org/2000/svg">
<g clip-path="url(#clip0_165_372)">
<path d="M40.0008 71.377C54.2903 71.377 65.8743 59.793 65.8743 45.5034C65.8743 31.2139 54.2903 19.6299 40.0008 19.6299C25.7112 19.6299 14.1272 31.2139 14.1272 45.5034C14.1272 59.793 25.7112 71.377 40.0008 71.377Z" fill="#00CFFF"/>
<path d="M75.9878 11.2793C74.1779 11.4667 72.3595 11.5606 70.54 11.5607C59.575 11.5786 48.8845 8.13277 39.9939 1.71484C31.1042 8.12928 20.4171 11.5748 9.45477 11.5607C6.86409 11.558 4.27718 11.3631 1.71535 10.9775V42.0655C1.70971 48.4105 3.09307 54.6799 5.76831 60.4333C8.44354 66.1868 12.3458 71.2849 17.2011 75.3697C24.2674 80.8305 31.9133 85.4967 40.0008 89.2842C48.0883 85.4967 55.7342 80.8305 62.8005 75.3697C67.6558 71.2849 71.5581 66.1868 74.2333 60.4333C76.9085 54.6799 78.2919 48.4105 78.2863 42.0655V28.6519" stroke="#8000FF" stroke-width="3.4306" stroke-linecap="round" stroke-linejoin="round"/>
<g clip-path="url(#clip1_165_372)">
<path d="M32.8972 28.514C43.9036 23.5957 56.8608 31.2332 57.8985 43.1539C47.7402 41.3577 39.5041 36.4624 32.8972 28.514Z" fill="#8000FF"/>
<path d="M32.9126 61.4746C39.5003 53.53 47.7365 48.652 57.9924 46.8193C57.2266 52.5225 54.6018 56.8709 49.9879 59.995C44.4627 63.739 37.4078 63.6852 32.9126 61.4746Z" fill="#8000FF"/>
<path d="M43.1991 46.3643C40.2527 47.5828 37.1053 48.7707 34.0613 50.1792C30.9922 51.6051 28.2077 53.5793 25.8443 56.0052C23.9011 54.3491 21.799 48.905 22.1225 46.3643H43.1991Z" fill="#8000FF"/>
<path d="M25.7371 33.9082C30.7722 38.8975 36.9177 41.5265 43.3982 43.6163H22C22.2087 39.9722 23.5067 36.8366 25.7371 33.9082Z" fill="#8000FF"/>
<path d="M42.6765 49.5537C38.0077 52.4188 33.88 56.0872 30.4831 60.3902L27.4448 58.0874C31.7639 53.6738 37.0517 51.3115 42.6765 49.5537Z" fill="#8000FF"/>
<path d="M30.4677 29.6006C33.8761 33.9122 38.0192 37.5849 42.7051 40.4486C37.0842 38.7061 31.8232 36.3458 27.4524 31.9475L30.4677 29.6006Z" fill="#8000FF"/>
</g>
</g>
<defs>
<clipPath id="clip0_165_372">
<rect width="80.0015" height="91" fill="white"/>
</clipPath>
<clipPath id="clip1_165_372">
<rect width="36" height="36" fill="white" transform="translate(22 27)"/>
</clipPath>
</defs>
</svg>
