<svg width="84" height="90" viewBox="0 0 84 90" fill="none" xmlns="http://www.w3.org/2000/svg">
<path d="M81.9389 15.3916H69.5651C68.8432 15.3916 68.2581 15.9768 68.2581 16.6986V68.1443C68.2581 68.8661 68.8432 69.4513 69.5651 69.4513H81.9389C82.6607 69.4513 83.2459 68.8661 83.2459 68.1443V16.6986C83.2459 15.9768 82.6607 15.3916 81.9389 15.3916Z" fill="#00CFFF"/>
<path d="M51.9564 33.2529H39.5827C38.8608 33.2529 38.2756 33.8381 38.2756 34.56V68.8084C38.2756 69.5303 38.8608 70.1154 39.5827 70.1154H51.9564C52.6783 70.1154 53.2635 69.5303 53.2635 68.8084V34.56C53.2635 33.8381 52.6783 33.2529 51.9564 33.2529Z" fill="#00CFFF"/>
<path d="M21.9743 48.8975H9.6005C8.87864 48.8975 8.29346 49.4826 8.29346 50.2045V67.4946C8.29346 68.2164 8.87864 68.8016 9.6005 68.8016H21.9743C22.6961 68.8016 23.2813 68.2164 23.2813 67.4946V50.2045C23.2813 49.4826 22.6961 48.8975 21.9743 48.8975Z" fill="#00CFFF"/>
<path d="M16.6465 75.4364V55.5322" stroke="#8000FF" stroke-width="3.31736" stroke-linecap="round" stroke-linejoin="round"/>
<path d="M16.6465 55.5322H1.65869V75.4364" stroke="#8000FF" stroke-width="3.31736" stroke-linecap="round" stroke-linejoin="round"/>
<path d="M46.6287 75.4367V40.5381H31.6409V75.4367" stroke="#8000FF" stroke-width="3.31736" stroke-linecap="round" stroke-linejoin="round"/>
<path d="M76.6111 88.3277V40.1663V23.334H61.6233V75.4365" stroke="#8000FF" stroke-width="3.31736" stroke-linecap="round" stroke-linejoin="round"/>
<path d="M62.4262 0.105894L53.8542 2.75978C53.4726 2.88236 53.1293 3.1019 52.858 3.39692C52.5867 3.69194 52.3966 4.05233 52.3063 4.44284C52.216 4.83335 52.2287 5.24061 52.343 5.62477C52.4573 6.00893 52.6694 6.35684 52.9585 6.63446L59.5269 12.7384C59.8248 13.0138 60.1899 13.2061 60.5855 13.296C60.9812 13.3859 61.3935 13.3702 61.7812 13.2506C62.1689 13.131 62.5183 12.9117 62.7946 12.6145C63.0708 12.3173 63.2641 11.9528 63.3551 11.5574L65.3455 2.8195C65.4333 2.42613 65.4166 2.01665 65.297 1.63176C65.1774 1.24687 64.9592 0.899981 64.664 0.625583C64.3688 0.351184 64.0069 0.158837 63.6143 0.0676647C63.2218 -0.0235073 62.8121 -0.0103273 62.4262 0.105894Z" fill="#8000FF"/>
<path d="M57.0586 8.79102C47.3996 18.312 35.7214 25.5366 22.8898 29.9292C16.0203 32.2941 8.89268 33.8287 1.65869 34.5006" stroke="#8000FF" stroke-width="3.31736" stroke-linecap="round" stroke-linejoin="round"/>
<path d="M76.7039 88.3408H1.75146" stroke="#8000FF" stroke-width="3.31736" stroke-linecap="round" stroke-linejoin="round"/>
</svg>
