<svg width="74" height="92" viewBox="0 0 74 92" fill="none" xmlns="http://www.w3.org/2000/svg">
<path d="M36.9675 84.7798C50.363 84.7798 61.2221 73.9206 61.2221 60.5251C61.2221 47.1297 50.363 36.2705 36.9675 36.2705C23.5721 36.2705 12.7129 47.1297 12.7129 60.5251C12.7129 73.9206 23.5721 84.7798 36.9675 84.7798Z" fill="#00CFFF"/>
<g clip-path="url(#clip0_165_50)">
<path d="M31.0811 47.2617C40.253 43.1631 51.0507 49.5277 51.9155 59.4616C43.4502 57.9648 36.5868 53.8854 31.0811 47.2617Z" fill="#8000FF"/>
<path d="M31.0938 74.7283C36.5835 68.1078 43.447 64.0428 51.9936 62.5156C51.3554 67.2683 49.1681 70.892 45.3232 73.4954C40.7188 76.6153 34.8398 76.5705 31.0938 74.7283Z" fill="#8000FF"/>
<path d="M39.6659 62.1367C37.2106 63.1522 34.5878 64.142 32.0511 65.3158C29.4935 66.5041 27.1731 68.1493 25.2036 70.1708C23.5842 68.7908 21.8325 64.254 22.1021 62.1367H39.6659Z" fill="#8000FF"/>
<path d="M25.1142 51.7568C29.3101 55.9146 34.4314 58.1054 39.8318 59.8469H22C22.1739 56.8101 23.2556 54.1971 25.1142 51.7568Z" fill="#8000FF"/>
<path d="M39.2304 64.7949C35.3398 67.1825 31.9 70.2395 29.0693 73.8253L26.5374 71.9063C30.1366 68.2283 34.5431 66.2597 39.2304 64.7949Z" fill="#8000FF"/>
<path d="M29.0565 48.167C31.8968 51.76 35.3493 54.8206 39.2543 57.207C34.5702 55.7549 30.186 53.788 26.5437 50.1227L29.0565 48.167Z" fill="#8000FF"/>
</g>
<path d="M66.44 61.2408C66.2828 67.7369 63.9832 73.999 59.8988 79.0529C55.8144 84.1069 50.1742 87.6693 43.8557 89.186C37.5372 90.7028 30.8945 90.0888 24.961 87.4397C19.0275 84.7905 14.1358 80.2547 11.0469 74.5377C7.95807 68.8208 6.84514 62.2433 7.88129 55.8284C8.91744 49.4135 12.0446 43.5209 16.7762 39.0671C21.5079 34.6134 27.5788 31.8483 34.0446 31.2019C40.5105 30.5555 47.0086 32.0641 52.5283 35.493" stroke="#8000FF" stroke-width="3.07483" stroke-linecap="round" stroke-linejoin="round"/>
<path d="M36.4834 31.053V4.79785" stroke="#8000FF" stroke-width="3.07483" stroke-linecap="round" stroke-linejoin="round"/>
<path d="M34.2691 1.28132L29.3167 9.86009C29.0913 10.2481 28.9724 10.6888 28.9719 11.1376C28.9715 11.5863 29.0896 12.0273 29.3142 12.4157C29.5389 12.8042 29.8622 13.1265 30.2513 13.3499C30.6405 13.5734 31.0818 13.6901 31.5306 13.6882H41.4353C41.8834 13.6883 42.3236 13.5705 42.7118 13.3466C43.0999 13.1228 43.4223 12.8007 43.6466 12.4128C43.8709 12.0249 43.9893 11.5849 43.9897 11.1368C43.9902 10.6887 43.8727 10.2484 43.6492 9.86009L38.6911 1.28132C38.468 0.891987 38.146 0.568469 37.7578 0.343478C37.3695 0.118486 36.9288 0 36.4801 0C36.0313 0 35.5906 0.118486 35.2023 0.343478C34.8141 0.568469 34.4922 0.891987 34.2691 1.28132Z" fill="#8000FF"/>
<path d="M66.4399 60.526V19.3271" stroke="#8000FF" stroke-width="3.07483" stroke-linecap="round" stroke-linejoin="round"/>
<path d="M64.2315 15.8038L59.2734 24.3884C59.0498 24.7767 58.9324 25.217 58.9329 25.6651C58.9333 26.1132 59.0516 26.5532 59.276 26.9411C59.5003 27.329 59.8227 27.651 60.2108 27.8749C60.599 28.0988 61.0392 28.2166 61.4873 28.2165H71.3978C71.8461 28.2173 72.2866 28.0999 72.675 27.876C73.0634 27.6522 73.3858 27.3298 73.6098 26.9415C73.8337 26.5532 73.9513 26.1127 73.9507 25.6644C73.95 25.2162 73.8311 24.776 73.6059 24.3884L68.6535 15.8038C68.4292 15.416 68.1069 15.094 67.7188 14.8701C67.3307 14.6462 66.8906 14.5283 66.4425 14.5283C65.9945 14.5283 65.5543 14.6462 65.1663 14.8701C64.7782 15.094 64.4558 15.416 64.2315 15.8038Z" fill="#8000FF"/>
<path d="M7.50684 60.526V19.3271" stroke="#8000FF" stroke-width="3.07483" stroke-linecap="round" stroke-linejoin="round"/>
<path d="M5.29291 15.8041L0.340513 24.3886C0.116982 24.7769 -0.000452301 25.2172 1.30914e-06 25.6653C0.000454919 26.1134 0.11878 26.5535 0.343097 26.9413C0.567415 27.3292 0.889829 27.6513 1.27797 27.8751C1.66611 28.099 2.10632 28.2168 2.55439 28.2168H12.4592C12.9073 28.2168 13.3475 28.099 13.7356 27.8751C14.1237 27.6513 14.4462 27.3292 14.6705 26.9413C14.8948 26.5535 15.0131 26.1134 15.0136 25.6653C15.014 25.2172 14.8966 24.7769 14.6731 24.3886L9.72066 15.8041C9.4956 15.4163 9.17264 15.0945 8.78411 14.8708C8.39559 14.647 7.95512 14.5293 7.50678 14.5293C7.05845 14.5293 6.61798 14.647 6.22946 14.8708C5.84093 15.0945 5.51797 15.4163 5.29291 15.8041Z" fill="#8000FF"/>
<defs>
<clipPath id="clip0_165_50">
<rect width="30" height="30" fill="white" transform="translate(22 46)"/>
</clipPath>
</defs>
</svg>
