<svg width="84" height="90" viewBox="0 0 84 90" fill="none" xmlns="http://www.w3.org/2000/svg">
<g clip-path="url(#clip0_165_325)">
<g clip-path="url(#clip1_165_325)">
<path d="M38.4629 10.2393C34.9922 10.2418 31.5696 11.0508 28.4651 12.6024C25.3605 14.1541 22.659 16.4059 20.5737 19.1802C18.4883 21.9545 17.0761 25.1755 16.4486 28.5889C15.821 32.0024 15.9952 35.515 16.9575 38.8496H59.9683C60.9305 35.515 61.1047 32.0024 60.4771 28.5889C59.8496 25.1755 58.4374 21.9545 56.3521 19.1802C54.2667 16.4059 51.5652 14.1541 48.4607 12.6024C45.3561 11.0508 41.9335 10.2418 38.4629 10.2393Z" fill="#00CFFF"/>
<path d="M11.9129 38.4795C10.779 33.3296 11.1671 27.9611 13.0299 23.0279C14.8926 18.0946 18.1497 13.8094 22.4045 10.6942C26.6592 7.57902 31.7279 5.76823 36.9934 5.48237C42.2589 5.19652 47.4939 6.44794 52.0609 9.08422" stroke="#8000FF" stroke-width="2.88586" stroke-linecap="round" stroke-linejoin="round"/>
<path d="M61.896 18.8447C65.3053 24.6491 66.4444 31.5103 65.0935 38.1049" stroke="#8000FF" stroke-width="2.88586" stroke-linecap="round" stroke-linejoin="round"/>
<path d="M8.59402 38.4805H68.337C70.2321 38.4805 72.0495 39.2333 73.3896 40.5733C74.7296 41.9133 75.4824 43.7308 75.4824 45.6258V82.028C75.4824 83.9231 74.7296 85.7406 73.3896 87.0806C72.0495 88.4206 70.2321 89.1734 68.337 89.1734H8.58825C6.69318 89.1734 4.87572 88.4206 3.5357 87.0806C2.19569 85.7406 1.44287 83.9231 1.44287 82.028V45.6258C1.4444 43.7302 2.1985 41.9128 3.53943 40.5729C4.88037 39.2331 6.69842 38.4805 8.59402 38.4805Z" stroke="#8000FF" stroke-width="2.88586" stroke-linecap="round" stroke-linejoin="round"/>
<path d="M48.6731 56.3027H75.4827V71.3554H48.6731C47.2954 71.3554 45.9741 70.8081 45 69.8339C44.0258 68.8597 43.4785 67.5385 43.4785 66.1608V61.4857C43.4816 60.1101 44.0302 58.7918 45.004 57.8201C45.9779 56.8484 47.2974 56.3027 48.6731 56.3027Z" stroke="#8000FF" stroke-width="2.88586" stroke-linecap="round" stroke-linejoin="round"/>
<path d="M54.7448 63.8292C54.7448 64.5404 54.5339 65.2356 54.1388 65.8269C53.7437 66.4182 53.1821 66.8791 52.525 67.1512C51.868 67.4234 51.145 67.4946 50.4475 67.3559C49.75 67.2171 49.1093 66.8747 48.6064 66.3718C48.1035 65.8689 47.7611 65.2282 47.6223 64.5307C47.4836 63.8332 47.5548 63.1102 47.8269 62.4531C48.0991 61.7961 48.56 61.2345 49.1513 60.8394C49.7426 60.4443 50.4378 60.2334 51.149 60.2334C51.6214 60.2326 52.0893 60.3251 52.5259 60.5056C52.9625 60.686 53.3592 60.9508 53.6933 61.2849C54.0273 61.6189 54.2922 62.0156 54.4726 62.4522C54.653 62.8888 54.7455 63.3568 54.7448 63.8292Z" fill="#8000FF"/>
<path d="M30.2 20.5561C41.5121 15.5011 54.8292 23.3508 55.8957 35.6026C45.4553 33.7566 36.9904 28.7253 30.2 20.5561Z" fill="#8000FF"/>
<path d="M22.8409 26.1006C28.0158 31.2285 34.3321 33.9305 40.9926 36.0784H19C19.2145 32.333 20.5486 29.1103 22.8409 26.1006Z" fill="#8000FF"/>
<path d="M27.7028 21.6729C31.2059 26.1043 35.464 29.879 40.2802 32.8222C34.5031 31.0313 29.0959 28.6054 24.6038 24.085L27.7028 21.6729Z" fill="#8000FF"/>
</g>
</g>
<defs>
<clipPath id="clip0_165_325">
<rect width="83.2459" height="90" fill="white"/>
</clipPath>
<clipPath id="clip1_165_325">
<rect width="76.9254" height="86.6218" fill="white" transform="translate(0 4)"/>
</clipPath>
</defs>
</svg>
